<svg xmlns="http://www.w3.org/2000/svg" viewBox="0 0 24 24" fill="currentColor" aria-hidden="true"><path d="M12 0C5.373 0 0 5.373 0 12s5.373 12 12 12 12-5.373 12-12S18.627 0 12 0zm-.918 4.095h1.836v6.579c0 .823.151 1.425.454 1.807.302.382.774.573 1.415.573.622 0 1.089-.191 1.402-.573.313-.382.469-.984.469-1.807V4.095h1.836v6.653c0 1.246-.261 2.17-.784 2.771-.523.602-1.235.903-2.135.903-.9 0-1.612-.301-2.135-.903-.523-.601-.784-1.525-.784-2.771V4.095zm-3.59 3.075h1.835v8.54H7.492v-8.54zm-2.754 2.754H6.57v5.786H4.738V9.924z"/></svg>
